<?xml version="1.0" encoding="utf-8"?>
<!-- Generator: Adobe Illustrator 16.0.0, SVG Export Plug-In . SVG Version: 6.00 Build 0)  -->
<!DOCTYPE svg PUBLIC "-//W3C//DTD SVG 1.1//EN" "http://www.w3.org/Graphics/SVG/1.1/DTD/svg11.dtd">
<svg version="1.1" id="Layer_1" xmlns="http://www.w3.org/2000/svg" xmlns:xlink="http://www.w3.org/1999/xlink" x="0px" y="0px"
	  viewBox="0 0 260 65" enable-background="new 0 0 260 65" xml:space="preserve">
<g>
	<polygon fill="#231F20" points="61.439,21.697 66.928,21.697 71.753,37.392 77.007,21.647 81.407,21.647 86.657,37.392 
		91.485,21.697 96.83,21.697 88.882,45.054 84.435,45.054 79.134,29.875 73.884,45.054 69.39,45.054 	"/>
	<path fill="#231F20" d="M104.969,21.697h4.731l10.031,23.356h-5.395l-2.08-5.2h-9.89l-2.175,5.2h-5.206L104.969,21.697z
		 M110.364,35.361l-3.075-7.52l-3.125,7.52H110.364z"/>
	<polygon fill="#231F20" points="125.315,26.566 118.217,26.566 118.217,21.839 137.568,21.839 137.568,26.566 130.471,26.566 
		130.471,45.054 125.315,45.054 	"/>
	<polygon fill="#231F20" points="141.449,21.839 159.05,21.839 159.05,26.378 146.558,26.378 146.558,31.105 157.584,31.105 
		157.584,35.645 146.558,35.645 146.558,40.515 159.238,40.515 159.238,45.054 141.449,45.054 	"/>
	<path fill="#231F20" d="M164.775,21.839h10.645c2.981,0,5.301,0.851,6.814,2.364c0.331,0.378,0.614,0.755,0.897,1.181
		c0.239,0.378,0.476,0.803,0.664,1.277c0.142,0.473,0.283,0.944,0.378,1.416c0.047,0.476,0.095,0.948,0.047,1.42v0.095
		c0.048,0.378,0,0.803-0.047,1.184c-0.047,0.378-0.095,0.755-0.236,1.133c-0.094,0.378-0.236,0.756-0.378,1.089
		c-0.188,0.378-0.38,0.709-0.616,1.039c-0.236,0.331-0.473,0.614-0.756,0.896c-0.283,0.287-0.569,0.57-0.9,0.807
		c-0.283,0.236-0.613,0.425-0.991,0.613c-0.334,0.142-0.712,0.33-1.089,0.425l5.678,8.276h-5.961l-5.017-7.423h-4.023v7.423h-5.108
		V21.839z M175.09,33.14c2.509,0,3.929-1.325,3.929-3.265V29.78c0-2.175-1.515-3.308-4.022-3.308h-5.112v6.667H175.09z"/>
	<polygon fill="#231F20" points="189.899,21.839 195.059,21.839 195.059,40.42 205.986,40.42 205.986,45.054 189.899,45.054 	"/>
	<path fill="#231F20" d="M206.744,33.564v-0.048c0-6.619,5.251-12.011,12.442-12.011c7.24,0,12.398,5.345,12.398,11.916v0.095
		c0,6.572-5.253,11.962-12.445,11.962S206.744,40.136,206.744,33.564z M226.19,33.564v-0.048c0-0.235,0-0.472,0-0.711
		c-0.048-0.236-0.048-0.472-0.095-0.708s-0.095-0.473-0.142-0.709c-0.095-0.235-0.142-0.425-0.236-0.661
		c-0.095-0.238-0.191-0.428-0.286-0.664c-0.095-0.188-0.235-0.425-0.33-0.613c-0.142-0.189-0.283-0.378-0.426-0.566
		c-0.142-0.188-0.283-0.378-0.472-0.522c-0.145-0.189-0.334-0.331-0.522-0.472c-0.188-0.189-0.378-0.331-0.566-0.426
		c-0.189-0.142-0.378-0.283-0.617-0.378c-0.188-0.142-0.378-0.235-0.613-0.33c-0.236-0.095-0.426-0.142-0.662-0.236
		c-0.238-0.047-0.475-0.142-0.711-0.189c-0.188-0.047-0.425-0.047-0.661-0.094c-0.238,0-0.475-0.05-0.711-0.05
		c-4.164,0-7.003,3.264-7.003,7.235v0.095c0,0.236,0,0.473,0,0.709c0,0.235,0.047,0.425,0.095,0.66
		c0.047,0.236,0.094,0.476,0.141,0.712c0.051,0.236,0.146,0.473,0.239,0.66c0.095,0.236,0.189,0.473,0.284,0.662
		c0.094,0.188,0.235,0.425,0.33,0.616c0.142,0.188,0.283,0.378,0.425,0.566c0.142,0.189,0.287,0.378,0.476,0.52
		c0.142,0.189,0.33,0.331,0.519,0.52c0.189,0.142,0.378,0.283,0.567,0.425c0.192,0.145,0.38,0.239,0.569,0.381
		c0.236,0.095,0.425,0.188,0.661,0.283s0.428,0.189,0.664,0.235c0.235,0.095,0.472,0.144,0.708,0.189
		c0.189,0.048,0.425,0.095,0.664,0.095c0.236,0.047,0.473,0.047,0.708,0.047C223.352,40.797,226.19,37.536,226.19,33.564z"/>
	<path fill="#231F20" d="M233.004,33.564v-0.048c0-6.619,5.251-12.011,12.442-12.011c7.192,0,12.352,5.345,12.352,11.916v0.095
		c0,6.572-5.206,11.962-12.446,11.962C238.16,45.479,233.004,40.136,233.004,33.564z M252.45,33.564v-0.048c0-0.235,0-0.472,0-0.711
		c-0.048-0.236-0.048-0.472-0.095-0.708s-0.095-0.473-0.142-0.709c-0.095-0.235-0.142-0.425-0.235-0.661
		c-0.096-0.238-0.192-0.428-0.287-0.664c-0.095-0.188-0.236-0.425-0.33-0.613c-0.142-0.189-0.284-0.378-0.426-0.566
		s-0.33-0.378-0.472-0.522c-0.145-0.189-0.334-0.331-0.522-0.472c-0.188-0.189-0.378-0.331-0.566-0.473
		c-0.189-0.095-0.378-0.236-0.617-0.331c-0.188-0.142-0.425-0.235-0.614-0.33c-0.235-0.095-0.424-0.189-0.66-0.236
		c-0.239-0.047-0.476-0.142-0.712-0.189c-0.235-0.047-0.472-0.047-0.66-0.094c-0.239,0-0.476-0.05-0.712-0.05
		c-4.164,0-7.003,3.264-7.003,7.235v0.095c0,0.236,0,0.473,0,0.709c0,0.235,0.047,0.425,0.095,0.66
		c0.047,0.236,0.094,0.476,0.142,0.712c0.047,0.236,0.145,0.473,0.238,0.66c0.048,0.236,0.143,0.425,0.283,0.662
		c0.095,0.188,0.189,0.425,0.331,0.616c0.142,0.188,0.283,0.378,0.425,0.566c0.142,0.189,0.286,0.378,0.476,0.52
		c0.142,0.189,0.33,0.331,0.52,0.52c0.142,0.142,0.33,0.283,0.52,0.425c0.238,0.145,0.428,0.239,0.616,0.381
		c0.236,0.095,0.425,0.188,0.661,0.283c0.188,0.095,0.428,0.189,0.664,0.235c0.236,0.095,0.425,0.144,0.661,0.189
		c0.235,0.048,0.472,0.095,0.711,0.095c0.236,0.047,0.473,0.047,0.708,0.047C249.563,40.797,252.45,37.536,252.45,33.564z"/>
	<path fill="#231F20" d="M74.451,10.111V4.014h2.367v6.05c0,1.75,0.897,2.65,2.316,2.65c1.467,0,2.319-0.9,2.319-2.603V4.014h2.364
		v6.003c0,3.264-1.797,4.869-4.684,4.869C76.248,14.886,74.451,13.28,74.451,10.111z"/>
	<polygon fill="#231F20" points="90.113,4.014 92.335,4.014 97.353,10.586 97.353,4.014 99.669,4.014 99.669,14.697 97.683,14.697 
		92.429,7.889 92.429,14.697 90.113,14.697 	"/>
	<rect x="106.415" y="4.025" fill="#231F20" width="2.409" height="10.672"/>
	<polygon fill="#231F20" points="114.576,4.014 117.175,4.014 120.015,11.53 122.807,4.014 125.362,4.014 121.009,14.791 
		118.878,14.791 	"/>
	<polygon fill="#231F20" points="131.087,4.014 139.177,4.014 139.177,6.094 133.404,6.094 133.404,8.27 138.516,8.27 
		138.516,10.347 133.404,10.347 133.404,12.569 139.271,12.569 139.271,14.697 131.087,14.697 	"/>
	<path fill="#231F20" d="M150.155,9.214c1.184,0,1.845-0.614,1.845-1.515c0-1.038-0.709-1.558-1.892-1.558h-2.32v3.072H150.155z
		 M145.424,4.014h4.873c0.567-0.047,1.136,0.047,1.703,0.236c0.522,0.188,0.994,0.472,1.419,0.85c0.331,0.33,0.57,0.708,0.711,1.137
		c0.189,0.378,0.237,0.85,0.237,1.274c0,0.378-0.048,0.759-0.143,1.089c-0.095,0.331-0.235,0.661-0.475,0.992
		c-0.188,0.283-0.425,0.52-0.709,0.755c-0.33,0.239-0.617,0.381-0.994,0.476l2.65,3.875h-2.792l-2.27-3.45h-1.895v3.45h-2.364
		L145.424,4.014z"/>
	<path fill="#231F20" d="M159.806,13.139l1.42-1.655c0.428,0.378,0.946,0.708,1.467,0.944c0.569,0.188,1.136,0.333,1.752,0.333
		c0.945,0,1.562-0.381,1.562-0.994s-0.38-0.897-2.178-1.372c-2.175-0.52-3.594-1.134-3.594-3.262c0-1.938,1.607-3.214,3.782-3.214
		c0.712-0.047,1.42,0.095,2.131,0.284c0.661,0.235,1.278,0.566,1.845,0.991l-1.23,1.797c-0.803-0.613-1.75-0.991-2.792-1.039
		c-0.897,0-1.372,0.378-1.372,0.897c0,0.709,0.428,0.944,2.319,1.42c2.176,0.566,3.406,1.322,3.406,3.214
		c0,2.08-1.656,3.308-3.973,3.308c-0.806,0-1.608-0.142-2.414-0.425C161.178,14.083,160.47,13.705,159.806,13.139z"/>
	<rect x="174.506" y="4.025" fill="#231F20" width="2.361" height="10.672"/>
	<polygon fill="#231F20" points="186.115,6.188 182.849,6.188 182.849,4.014 191.791,4.014 191.791,6.188 188.527,6.188 
		188.527,14.697 186.115,14.697 	"/>
	<polygon fill="#231F20" points="200.639,10.491 196.525,4.014 199.316,4.014 201.869,8.316 204.473,4.014 207.17,4.014 
		203.006,10.444 203.006,14.697 200.639,14.697 	"/>
	<path fill="#231F20" d="M229.549,9.355c0-0.189,0-0.425-0.048-0.614c-0.047-0.235-0.094-0.425-0.142-0.664
		c-0.095-0.188-0.188-0.378-0.33-0.566c-0.095-0.188-0.236-0.33-0.378-0.52c-0.142-0.142-0.334-0.283-0.522-0.425
		c-0.189-0.095-0.377-0.188-0.566-0.283c-0.188-0.095-0.378-0.142-0.617-0.189C226.71,6.047,226.521,6,226.285,6
		c-0.189,0-0.426,0.047-0.614,0.094c-0.239,0.048-0.428,0.095-0.617,0.189c-0.235,0.047-0.425,0.188-0.566,0.283
		c-0.188,0.142-0.378,0.283-0.522,0.425c-0.142,0.142-0.283,0.331-0.378,0.52c-0.142,0.188-0.235,0.378-0.283,0.566
		c-0.095,0.192-0.142,0.429-0.188,0.617c-0.048,0.236-0.048,0.425-0.048,0.661c0,0.188,0,0.425,0.048,0.661
		c0.047,0.188,0.094,0.378,0.188,0.616c0.048,0.189,0.142,0.378,0.283,0.566c0.095,0.189,0.236,0.378,0.425,0.521
		c0.145,0.142,0.287,0.283,0.476,0.425c0.188,0.094,0.378,0.235,0.566,0.283c0.189,0.094,0.425,0.188,0.617,0.236
		c0.236,0,0.425,0.05,0.661,0.05c0.235,0,0.425,0,0.661-0.05c0.191-0.048,0.428-0.095,0.616-0.189
		c0.189-0.095,0.378-0.188,0.567-0.33c0.188-0.095,0.333-0.236,0.522-0.425c0.142-0.143,0.283-0.284,0.378-0.473
		c0.142-0.188,0.235-0.378,0.282-0.614c0.095-0.188,0.142-0.38,0.189-0.616c0.047-0.188,0.047-0.425,0.047-0.661H229.549z
		 M220.606,9.355c0-0.331,0.047-0.708,0.095-1.086c0.095-0.381,0.188-0.711,0.33-1.089c0.142-0.331,0.334-0.661,0.522-0.992
		c0.236-0.286,0.473-0.569,0.709-0.853c0.283-0.236,0.569-0.473,0.899-0.709c0.283-0.188,0.614-0.377,0.994-0.519
		c0.331-0.142,0.662-0.236,1.04-0.331c0.38-0.047,0.758-0.095,1.136-0.095s0.758,0.048,1.089,0.095
		c0.378,0.095,0.756,0.189,1.089,0.331c0.331,0.142,0.661,0.33,0.991,0.519c0.283,0.236,0.57,0.473,0.853,0.709
		c0.284,0.283,0.521,0.566,0.709,0.853c0.236,0.331,0.381,0.661,0.522,0.992c0.142,0.378,0.283,0.708,0.33,1.089
		c0.095,0.378,0.142,0.755,0.142,1.086c0,0.378-0.047,0.756-0.142,1.136c-0.047,0.378-0.188,0.708-0.33,1.086
		c-0.142,0.331-0.286,0.661-0.522,0.944c-0.188,0.334-0.425,0.617-0.709,0.9c-0.282,0.236-0.569,0.473-0.853,0.709
		c-0.33,0.188-0.66,0.377-0.991,0.519c-0.333,0.142-0.711,0.236-1.089,0.334c-0.331,0.047-0.711,0.095-1.089,0.095
		s-0.756-0.048-1.136-0.095c-0.378-0.098-0.709-0.192-1.04-0.334c-0.38-0.142-0.711-0.33-0.994-0.519
		c-0.33-0.236-0.616-0.473-0.899-0.709c-0.236-0.283-0.473-0.566-0.709-0.9c-0.188-0.283-0.381-0.613-0.522-0.944
		c-0.142-0.378-0.235-0.708-0.33-1.086C220.653,10.111,220.606,9.733,220.606,9.355z"/>
	<polygon fill="#231F20" points="237.118,4.014 245.306,4.014 245.306,6.142 239.485,6.142 239.485,8.411 244.597,8.411 
		244.597,10.539 239.485,10.539 239.485,14.697 237.118,14.697 	"/>
	<path fill="#FFFFFF" d="M28.651,62.878l-0.664-0.33c-7.003-3.217-12.584-7.851-16.276-13.475C2.863,35.598,2.58,21.697,2.296,6.991
		c0-1.136-0.047-2.222-0.094-3.358V2.122H55.1l-0.047,1.511c-0.047,1.137-0.047,2.223-0.094,3.358
		c-0.283,14.706-0.617,28.653-9.417,42.082c-3.689,5.577-9.32,10.258-16.276,13.475L28.651,62.878z"/>
	<path fill="#FFD13F" d="M28.509,20.23L7.783,36.447c-3.312-10.261-3.217-20.992-3.5-31.914h48.355
		c-0.283,10.97-0.142,21.653-3.5,31.914L28.509,20.23z"/>
	<path fill="#FFD13F" d="M45.305,45.194c-0.52,0.897-1.089,1.798-1.656,2.695c-3.692,5.628-9.178,9.785-15.187,12.577
		c-6.059-2.792-11.498-6.902-15.189-12.577c-0.567-0.851-1.609-2.601-1.609-2.601l16.846-13.381L45.305,45.194z"/>
	<path fill="#C3002F" d="M14.314,12.809c-2.461-0.522-4.636-2.364-4.117-4.637c0,0-0.047-0.613-0.283-0.708
		c0,0-0.047-0.095-0.094-0.095c-0.095,0-0.189-0.047-0.236-0.095L9.441,7.181c-0.047,0.094,0,0.142-0.094,0.236
		c-0.05,0.047-0.05,0.094-0.097,0.094c-0.047,0-0.047,0.095-0.095,0.095C8.966,7.794,9.061,8.077,9.108,8.316
		c0,0.047,0,0.142,0,0.142s0,0-0.094-0.095L8.919,8.316c-0.047,0-0.189-0.047-0.189-0.095c-0.047-0.05,0-0.05-0.094-0.097
		c-0.047,0-0.094-0.189-0.142-0.378c0-0.048-0.047-0.095-0.047-0.188c0-0.142-0.377-0.378-0.236-0.284
		c0.142,0.143,0-0.047-0.236-0.094c-0.145-0.048-0.286-0.048-0.428,0c-0.047,0-0.047,0-0.095,0.047
		C7.311,7.369,7.169,7.464,6.98,7.511h0.047c0.094,0.142,0,0.283,0.094,0.425C7.169,8.077,7.263,8.172,7.405,8.27
		c0.094,0.094,0.283,0,0.378,0.142c0,0,0.191,0.047,0,0.236C7.452,8.931,7.075,8.694,6.838,9.309C7.216,9.166,7.263,9.78,7.452,9.78
		s0.378,0.048,0.57,0.095c0.142,0.047,0.331,0.094,0.472,0.188c0.189,0.095,0.331,0.189,0.472,0.331
		c0.095,0.145,0.236,0.286,0.331,0.428c0.239,0.52-0.472,0.52,0.192,0.661c0.283,0.047,0.52,0.188,0.661,0.425
		c0.189,0.236,0.236,0.566,0.425,0.806c0.094,0.142,0.239,0.236,0.333,0.33c0.142,0.095,0.283,0.142,0.425,0.142
		c0.095,0,0.142,0.095,0.236,0.095c0.094,0.048,0.189,0.095,0.283,0.142c0.047,0.047,0.189,0.142,0.236,0.189
		c0.047,0.094,0,0.283,0.094,0.425c0.097,0.142,0.145,0,0.192,0c0.047,0,0.094,0,0.142,0c0.095-0.048,0.236-0.048,0.331-0.048
		c0.189,0,0.142,0,0.378,0c0.047,0,0.094,0,0.142,0c0.094,0,0.142,0.048,0.142,0c0.094-0.235,0.189-0.425,0.333-0.66
		c0.094-0.143,0.189-0.284,0.283-0.473c0,0,0.236-0.142,0.189-0.142V12.809z"/>
	<path fill="#C3002F" d="M8.211,13.044c0.708,0.425,0.614,1.369,1.278,1.653c1.133,0.569,2.505,0.9,3.736,0.333
		c-0.283,0.85,0,1.559-0.095,1.652c-0.377,0.284-1.561-0.047-2.316-0.377c-0.522-0.189-0.9,0.566-1.467,0.52
		c0.047-0.143,0.047-0.283,0.047-0.378c-0.098-0.283-0.192-0.378-0.617-0.331c-0.331,0-0.189,0.284-0.614,0.52
		C7.975,16.494,7.594,16.4,7.547,16.73c0,0.142-0.331-0.52-0.284-0.661c0.284-0.52,0.331-0.614,0.331-0.756
		c0-0.094-0.708-0.38-0.756-0.235c-0.189,0.33-0.758-1.09,0.945-1.042c-0.473-0.283-0.425-0.331-0.284-0.661
		c0-0.047-0.189-0.236-0.283-0.142c-0.047-0.048,0-0.095,0-0.142c0.047-0.095,0.094-0.095,0.142-0.142
		C7.641,12.902,7.927,12.902,8.211,13.044z"/>
	<path fill="#C3002F" d="M11.617,9.544c1.042,0.284,2.556-1.086,3.5,0.52C14.456,9.828,12.469,10.869,11.617,9.544z"/>
	<path fill="#C3002F" d="M20.275,11.861c0,1.324-1.373,2.788-0.283,4.066c-0.476,0-0.947-0.142-1.325-0.425
		c-0.189-0.142-0.142,0.613-0.142,0.803c0.047,0.142-0.853-0.851-1.184-0.614c-0.377,0.331-0.806,0.614-1.278,0.756
		c-0.472,0.188-0.947,0.283-1.466,0.235c-0.378,0-0.567,0.331-0.708,0.665c-0.287-0.617-0.047-2.081,0.094-2.745
		c0.519-1.747,2.317-2.27,3.736-3.119c0.236-0.189,0.475-0.378,0.664-0.614c0.188-0.188,0.331-0.425,0.472-0.711
		c0.094-0.236,0.189-0.52,0.236-0.803c0.047-0.283,0.047-0.566,0.047-0.85c0.377,0.472,0.617,0.991,0.806,1.558
		c0.236,0.569,0.283,1.184,0.283,1.798H20.275z"/>
	<path fill="#C3002F" d="M13.697,26.992c0.145,0,0.05,0.142,0,0.188c-0.142,0.095-0.236,0.236-0.331,0.378
		c-0.094,0.095-0.142,0.236-0.094,0.331c0,0.094,0.047,0.188,0.094,0.282c0,0.048,0.047,0.095,0.094,0.142l0.095,0.095
		c-0.047-0.142,0.142-0.283,0.191-0.236c0.897,0.522,0.944-0.566,1.467-0.896c0.095-0.047,0.142-0.047,0.236-0.047
		c0.094,0,0.142,0.047,0.236,0.094c0.047,0.048,0.094,0.095,0.142,0.189c0,0.094,0,0.142,0,0.235
		c0.519-0.283,0.708-0.991,1.089-1.417c0.992-0.994,2.128-1.702,3.453-2.174c-0.519-0.429-0.994-0.9-1.419-1.42
		c-0.142-0.283-0.378-0.803,0-0.709c0.142,0.048,0.283,0.095,0.425,0.095c0.141,0.047,0.286,0.047,0.428,0
		c0.142,0,0.283-0.047,0.425-0.095c0.142-0.047,0.284-0.142,0.425-0.188c0.094-0.095,0.188-0.191,0.33-0.286
		c0.098-0.142,0.145-0.236,0.239-0.378c0.047-0.142,0.142-0.236,0.189-0.378c0-0.142,0.047-0.33,0.047-0.472
		c2.222,0.283,2.792-1.798,3.075-3.358c0.188-0.756,0.566-0.851,0.141-2.128c-0.188-0.566,0.995-0.708,0.759-1.653
		c-0.05-0.142-0.097-0.283-0.192-0.377c-0.142-0.095-0.236-0.145-0.378-0.192c0.189,0.522-0.708,0.617-0.755,0.853
		c-0.191,0.284-0.333,0.614-0.38,0.944c-0.708-0.991-0.142-2.222,0.522-3.166c0.992-1.325,3.075-0.614,3.925,0.236
		c-0.047-0.473-0.236-0.897-0.614-1.23c0.806-0.142,1.703,0.38,2.792-0.236c0.331-0.095,0.661-0.283,0.947-0.52
		c0.283-0.236,0.472-0.52,0.661-0.85c-1.373,0.188-3.217-0.854-4.448-1.089c-2.272-0.378-3.786,1.183-4.589,3.027
		c-0.806,1.842-0.284,3.214,0.566,4.586c0.236,0.331-0.755,0.095-1.184,0.283c-0.094,0.095-0.142,0.143-0.236,0.236
		c-0.047,0.047-0.094,0.142-0.142,0.236s-0.095,0.236-0.095,0.33c0,0.095,0,0.189,0.047,0.331c0.095-0.095,0.142-0.142,0.236-0.188
		c0.094,0,0.188-0.048,0.283-0.048c0.097-0.047,0.239-0.047,0.333,0c0.094,0,0.189,0,0.283,0.048
		c0.095,0.047,0.189,0.094,0.236,0.142c0.094,0.047,0.188,0.141,0.236,0.188c0.094,0.095,0.142,0.142,0.189,0.236
		c0.047,0.094,0.047,0.188,0.094,0.286c0.142,1.228-1.086,2.93-2.222,2.411c-1.184-0.476-1.986-1.845-2.414-3.358
		c-1.042,0.947-3.028,0.188-3.975,1.089c-0.897,0.897,1.419,1.369,2.272,1.842c0.189,0.047,0.331,0.142,0.425,0.333
		c0.095,0.142,0.142,0.331,0.142,0.52c-0.142-0.094-0.283-0.188-0.472-0.236c-0.142-0.047-0.331-0.094-0.472-0.094
		c-0.189-0.048-0.378,0-0.522,0c-0.189,0.047-0.331,0.094-0.52,0.188c-0.141,0.095-0.283,0.189-0.425,0.33
		c-0.094,0.095-0.236,0.236-0.331,0.378c-0.047,0.189-0.145,0.331-0.192,0.52c-0.047,0.142-0.047,0.331-0.047,0.522
		c0.094,1.086,1.419,1.747,2.508,1.842c0.472,0.047,0.758,0.522,0.189,0.9c-0.992,0.613-2.081,1.274-3.169,0.188
		c-0.048-0.047-0.142-0.095-0.236-0.095c-0.094,0-0.189,0-0.283,0.048c-0.095,0-0.142,0.047-0.236,0.095
		c-0.047,0.046-0.145,0.141-0.192,0.235c-0.047,0.188-0.047,0.378-0.047,0.566c0.047-0.094,0.142-0.236,0.239-0.236
		c0.095,0,0.236,0.143,0.189,0.189c-0.047,0.566-0.806,0.188-0.995,0.614c0,0,0,0.094-0.047,0.094c-0.189,0.286-0.378,0.476,0,0.711
		c0-0.047,0.142,0.236,0.142,0.284c0-0.095,0.047-0.142,0.094-0.189c0.047-0.047,0.142-0.095,0.189-0.047h0.189L13.697,26.992z"/>
	<path fill="#C3002F" d="M9.061,21.839c-0.142,0-0.284,0-0.425,0.095c-0.094,0.047-0.189,0-0.236,0.094
		c-0.047,0.048-0.047,0.095,0,0.189c0,0,0,0.095,0.047,0.095c-0.188-0.048-0.377-0.143-0.52-0.284
		C7.88,21.98,7.83,21.934,7.83,21.934c-0.047-0.048,0-0.095-0.047-0.142c-0.047-0.048-0.047-0.095,0-0.145
		c-0.047-0.142,0-0.283,0.047-0.378c0-0.047,0.05-0.095,0.097-0.142l0.095-0.142c0.094-0.095,0.189-0.142,0.331-0.189
		c0.189-0.047,0.377-0.047,0.566,0.048c0.142,0.047,0.284,0.094,0.428,0.094c0.094,0,0.236-0.188,0.142-0.236
		c-0.475-0.094-0.475-0.235-0.664-0.707c-0.047-0.095-0.189,0-0.236,0.094c0-0.9,1.089-0.995,1.562-0.614
		c0.664,0.521,0.142,1.559,0.947,1.842c0.425,0.189,0.897,0.236,1.325,0.095c0.803-0.331,0-1.134,0.283-1.795
		c0.472-1.324,1.608-1.419,2.981-0.142c-0.142,0.095-0.284,0.142-0.425,0.236c-0.097,0.095-0.239,0.189-0.333,0.284
		c-0.094,0.094-0.189,0.235-0.283,0.377c-0.094,0.095-0.142,0.236-0.236,0.378c-0.047,0.142-0.047,0.283-0.095,0.473
		c0,0.142,0,0.283,0,0.425c0,0.191,0.047,0.333,0.095,0.475c0.047,0.142,0.094,0.283,0.142,0.425
		c-1.042-0.425-2.415,0.284-3.17,0.756c0.708-0.708-0.236-1.275-0.519-1.134l-0.287,0.189c-0.142,0.188-0.142,0.378-0.331,0.566
		c-0.094,0.095-0.236,0.142-0.378,0.142c-0.142,0.048-0.283,0.048-0.425-0.047c0,0-0.145,0-0.145,0.047c0,0.048,0,0.143,0,0.189
		l-0.094-0.142c-0.142-0.048-0.236-0.142-0.284-0.236c-0.094-0.188-0.094-0.331,0-0.52c0.047-0.142,0.189-0.189,0.284-0.283
		C9.297,21.98,9.203,21.839,9.061,21.839z"/>
	<path fill="#C3002F" d="M35.132,10.017c0.094,0.047,0,0.236-0.142,0.236c-0.095,0.047-0.283,0-0.425,0
		c-0.522,0.191-0.522,1.467-0.428,1.277c0.05-0.142,0.475-0.047,0.711,0c0.378,0.095,0.662-0.661,0.948-0.661
		c0.614,0.048,1.181,0.803,1.372,1.275c0.047,0.094-0.239,0.142-0.286,0.425c0.428,0,0.806,0.095,1.184,0.286
		c0.377,0.142,0.711,0.378,0.995,0.661c0.236-0.425,0.566-0.803,0.897-1.137c-1.228-1.227-3.736-1.558-3.358-3.78
		c0.047-0.283-0.284-0.522-0.425-0.711c-0.141-0.189-0.519-0.142-0.758-0.236c0.239,0.52-0.189,0.569-0.142,1.325
		c0,0-0.047,0-0.094,0c-0.142-0.047-0.284-0.142-0.378-0.236c-0.142-0.047-0.283-0.094-0.425-0.047
		c-0.095,0.047-0.142,0.047-0.239,0.142c-0.094,0.048-0.189,0.188-0.236,0.283l-0.047,0.047c-0.047,0.048-0.095,0.143-0.095,0.189
		c0.047,0,0.284,0,0.284,0.047c0.047,0.048,0.094,0.189,0.145,0.284c0.047,0.094,0.142,0.094,0.283,0.188
		c0.188,0.047,0.377,0.094,0.566,0.094L35.132,10.017z"/>
	<path fill="#C3002F" d="M38.349,9.072c0.806-0.048,1.561-0.614,2.461,0.378c-0.142-0.095-0.331-0.095-0.472,0
		c-0.095,0.094-0.189,0.142-0.284,0.236c-0.145,0.047-0.239,0.094-0.38,0.142c-0.142,0.047-0.283,0.047-0.378,0.047
		c-0.142,0.047-0.283,0-0.425,0S38.635,9.828,38.49,9.78c-0.095-0.047-0.236-0.142-0.331-0.188
		c-0.094-0.095-0.236-0.189-0.283-0.283c-0.095-0.095-0.189-0.189-0.236-0.284c0.236-0.047,0.52,0.095,0.755,0.095L38.349,9.072z"/>
	<path fill="#C3002F" d="M41.757,11.955c1.278-0.661,2.6-1.18,3.122-2.789c0.095-0.282,0.331,0.473,0.378,0.521
		c0.664,1.938-0.708,3.877-0.425,5.816c-0.425-0.283-0.947-0.425-1.467-0.473c-0.425,0-0.853,0.048-1.23,0.236
		c-0.425,0.142-0.759,0.378-1.042,0.708c-0.52-0.425-1.136-0.708-1.797-0.85c-0.806-0.759,1.562-2.792,2.461-3.217V11.955z"/>
	<path fill="#C3002F" d="M38.254,24.863c0.141,0.236-0.095-0.188,0.141,0.284c0.9-0.378,1.895-0.803,2.887-0.426
		c-0.425-2.08,1.089-2.6,1.23-2.883c0.189-0.522-0.85-1.514-1.608-1.23c-0.995,0.33-0.566,1.608-0.755,2.458
		c-0.047,0.095-0.095,0.236-0.192,0.33c-0.047,0.095-0.142,0.189-0.283,0.236c-0.095,0.048-0.236,0.095-0.331,0.095
		c-0.142,0.047-0.283,0-0.378,0c-0.189-0.095-0.377-0.188-0.522-0.331c-0.142-0.141-0.283-0.282-0.425-0.424
		c-0.094-0.189-0.189-0.378-0.283-0.567c-0.047-0.188-0.095-0.378-0.142-0.566c-0.095-0.569-1.231-0.616-1.467-0.191
		c-0.711,1.325,0.425-0.142,0.331,0.853c0,0.189-0.756,0.047-0.947,0.614c-0.142,0.425,0.286,0.708,0.758,0.853
		c0.094,0-0.095-0.239,0-0.286c0.094-0.048,0.425,0.142,0.377,0.188c-0.472,0.287-0.566,0.947,0.236,1.23c0,0-0.047-0.236,0-0.283
		c0.239-0.141,0.428-0.188,0.664-0.188c0.236,0,0.472,0.048,0.661,0.188L38.254,24.863z"/>
	<path fill="#C3002F" d="M24.204,38.056c0.755,0.33,1.039,0,2.033-0.189c0.331,0.095,0.664,0.284,0.9,0.52
		C26.095,38.527,24.864,39.425,24.204,38.056z"/>
	<path fill="#C3002F" d="M23.775,38.858c-0.047-0.047-0.094-0.094-0.142-0.094c-0.094-0.048-0.142-0.048-0.236-0.095l-0.141-0.048
		c0,0.048,0.047,0.189,0,0.236c-0.047,0-0.142,0.047-0.189,0.142c0,0.047-0.047,0.047-0.047,0.095
		c-0.047,0.095-0.047,0.188-0.094,0.33c0,0.047,0,0.142,0,0.189c0,0,0.094,0.145,0.094,0.191l0.142,0.095
		c0.142,0.142,0,0.095,0.189,0.235c0.189,0.189-0.047,0.236-0.142,0.236c-0.614-0.188-0.708-0.9-1.23-1.089
		c-0.095-0.048-0.236-0.048-0.331,0c-0.142,0-0.236,0.047-0.378,0.142c-0.095,0.047-0.142,0.142-0.236,0.286
		c-0.051,0.095-0.051,0.189-0.098,0.331c0.098-0.047,0.145-0.047,0.192,0c0.047,0,0.094,0.047,0.142,0.094
		c0.142,0.614,1.039,0.284,1.039,0.709c0,0.282-0.708-0.048-0.944,0.142c-0.047,0.094-0.142,0.188-0.189,0.283
		c-0.047,0.142-0.094,0.236-0.094,0.378c0,0.094,0,0.236,0.047,0.333c0.047,0.142,0.094,0.236,0.189,0.33
		c0.283-0.33,0.661,0.143,1.039-0.094c0.333-0.236,0.286-0.381,0.522-0.476c0.708-0.282,0.897,0.334,0.708,0.948
		c0.475-0.142,0.948-0.284,1.467-0.379c0.381-0.094,0.381-0.946,0.806-1.23c-0.617,0-1.373-0.283-1.562-0.896
		c0-0.048,0-0.142,0-0.188c0-0.284,0-0.523-0.094-0.712c-0.047-0.048-0.047-0.048-0.047-0.094l-0.095-0.095
		c-0.047-0.095-0.144-0.142-0.239-0.189c-0.047,0-0.094,0-0.142-0.047H23.775z"/>
	<path fill="#C3002F" d="M19.187,43.161c0.283,0.52-1.089-0.33-1.608,0.473c-0.142,0.235-0.047,0.806-0.047,1.136
		c0.283-0.283,0.617,0.235,1.184-0.283c0.047,0.095,0.142,0.095,0.047,0.188c-0.094,0.095-0.189,0.236-0.236,0.379
		c-0.047,0.141-0.047,0.282,0,0.377c0.142,0.235,0.331,0.378,0.566,0.52c0.047-0.378,0.664,0,0.759-0.709
		c0.047-0.282,0.094-0.755,0.519-0.613c0.425,0.188,0.425,0.613,0.378,0.991c0.57-0.188,1.608-0.755,2.226-0.33
		c0.85,0.614,2.222,0.851,3.216,1.133c-0.661-0.425-0.853-1.605-0.755-2.363c-0.759,0.191-1.517,0.239-2.319,0.145
		c-0.806-0.051-1.562-0.239-2.273-0.569c-0.377-0.189-0.33-0.614-0.472-0.992c-0.094-0.236-0.236-0.425-0.425-0.566
		c-0.236-0.145-0.428-0.191-0.711-0.191c-0.236,0-0.85,0.569-0.755,0.569c-0.047,0-0.047,0.095-0.047,0.142
		c0.047-0.047,0.141-0.047,0.188-0.047c0.047,0.047,0.095,0.094,0.142,0.142c0,0.094,0.047,0.188,0.142,0.282
		C18.998,43.02,19.139,43.066,19.187,43.161z"/>
	<path fill="#C3002F" d="M22.878,51.578c0.283-0.378,0.566-0.189,0.708-0.189c0.331,0,0.284,0.426,0.236,0.709
		c1.23-0.614,2.414-1.467,3.881-1.134c-0.853-0.853-0.566-2.744,0.614-2.98c-0.283-0.047-0.566-0.094-0.85-0.188
		c-1.042-0.661-2.272-1.275-2.98,0.095c-0.331,0.708,0.283,1.23,0.755,1.796c0.095,0.095-0.047,0.143-0.142,0.189
		c-1.133,0.283-3.217,0.473-3.311-1.23c0-0.189-0.425-0.284-0.708-0.284c-0.806,0-0.806,1.09-0.711,0.995
		c0.142-0.047,0.759-0.094,0.711,0.33c-0.047,0.426-0.806-0.188-1.136,0.189c-0.142,0.189-0.189,0.378-0.189,0.614
		c-0.047,0.236,0,0.425,0.095,0.664c0-0.142,0.142-0.239,0.236-0.287c0.85-0.141,0.897,0.192,0.661,0.995
		c0,0.094,0.236,0.614,0.428,0.661c-0.047-0.047-0.047-0.094,0-0.188c0,0,0.047-0.047,0.095-0.047c0.094,0,0.189,0,0.283-0.048
		c0.047-0.047,0.095-0.047,0.142-0.095c0.047-0.047,0.095-0.095,0.142-0.142c0.236-0.283,0.378-0.566,0.711-0.614
		c0.142,0,0.283,0.048,0.378,0.142L22.878,51.578z"/>
	<path fill="#C3002F" d="M31.868,55.456c0.803-0.806,1.373-1.845,2.223-2.604c-0.944-0.519-2.128-1.085-2.223-2.316
		c0-0.094,0.142-0.188,0.142-0.188c1.325,0.711,3.075,0.806,3.976-0.52c0.755-1.039,1.086-2.789,2.553-2.884
		c-0.095-0.236-0.142-0.472-0.142-0.711c-0.047-0.236,0-0.473,0.095-0.708c0.098-0.236,0.192-0.426,0.333-0.614
		c0.189-0.188,0.378-0.33,0.567-0.472c-0.284-0.142-0.567-0.236-0.9-0.236c-0.378,0.047-0.52,0.566-0.944,0.613
		c0.661-2.222-0.664-5.345-3.123-5.297c-0.236,0.047-0.475,0.142-0.711,0.286c-0.236,0.142-0.378,0.378-0.472,0.614
		c-0.094,0.235-0.142,0.52-0.142,0.755c0.047,0.284,0.142,0.52,0.236,0.709c0.803,0.994,1.42,2.032,1.136,3.311
		c0.331-0.235,0.566-0.566,0.755-0.896c0.189-0.334,0.331-0.712,0.331-1.089c0-0.237,0.38-0.095,0.428-0.143
		c0.708-0.991-0.428-1.607-0.995-2.222c-0.189-0.189,0.236-0.425,0.283-0.425c2.083,0.66,2.32,3.214,1.372,4.916
		c-0.236-0.282-1.136-0.188-1.419-0.282c0.995,0.472,0.711,0.565,0.711,0.66c-0.094,0.331-0.947,0.189-1.136,0.378
		c-0.283,0.381-0.52,0.569-0.567,1.845c0.425-0.473,0.945-1.134,1.562-0.851c1.228,0.662-0.095,2.837-1.23,3.167
		c-0.236,0.047-0.475,0.095-0.711,0.095c-0.284,0-0.52-0.048-0.755-0.095c-0.189-0.095-0.428-0.236-0.617-0.378
		s-0.378-0.331-0.472-0.52c-0.9-1.277-0.283-2.788-0.9-4.066c-0.52,0.142-0.425,0.851-0.708,0.708
		c-0.947-0.425-1.514-1.463-2.225-2.363c-0.283,0.095-0.425,0.377-0.708,0.377c-0.425,0-1.183-0.142-1.372,0.048
		C26.048,44.203,26,44.345,26,44.486c-0.047,0.142-0.047,0.283,0,0.425c0,0.143,0,0.237,0.047,0.378
		c0.047,0.142,0.094,0.283,0.189,0.377c0.047,0.143,0.142,0.237,0.189,0.379c0.094,0.095,0.189,0.188,0.331,0.283
		c0.095,0.094,0.192,0.145,0.333,0.239c0.142,0.047,0.236,0.094,0.377,0.141c1.136,0.331,2.081,0.897,2.839,1.747
		c-0.472,0.048-0.711-0.188-1.042-0.235c-0.377,0.047-0.661,0.141-0.995,0.33c-0.188,0.095-0.331,0.287-0.425,0.476
		c-0.094,0.236-0.142,0.425-0.142,0.66c0.283,2.129,2.839,2.176,3.975,3.498c0.189,0.239-0.331,1.184-0.758,1.561
		c-0.472,0.379-1.419-0.52-1.231-1.18c0.145-0.57-1.18-0.9-1.655-0.283c0.188,0,0.236,0.094,0.188,0.188
		c-0.047,0.473,0.57,0.52,0.522,0.755c0,0.284-0.33-0.142-0.569-0.188c-0.236-0.048-0.52-0.048-0.755,0.046
		c-0.283,0.095-0.472,0.236-0.617,0.473c-0.095,0.095-0.331,0.331-0.236,0.52c0.428-0.188,0.617,0.476,0.995,0.236
		c0.236-0.095,0.425-0.283,0.708-0.236c0.145,0,0.239,0.188,0.145,0.236c-0.759,0.475-1.325,1.136-0.806,1.892
		c0-0.047,0.047-0.142,0.095-0.188s0.094-0.095,0.189-0.142c0.189-0.048,0.475,0.095,0.664,0c0.377-0.095,0.188-0.426,0.331-0.661
		c0.188-0.426,0.897-1.042,1.278-0.567c0.094,0.095,0,0.378-0.189,0.378c0.236,0,0.425,0.236,0.614,0.189c0.047,0,0.095,0,0.142,0
		c0.047-0.048,0.095-0.048,0.142-0.095c0.095-0.048,0.142-0.189,0.189-0.284c0.142,0,0.381,0,0.475-0.141
		c0.095-0.095,0.189-0.236,0.331-0.334V55.456z"/>
	<path fill="#C3002F" d="M28.27,39.995c1.373-0.381,2.934-1.09,3.22-2.65c0.188,0.145,0.331,0.333,0.425,0.521
		c0.094,0.236,0.142,0.426,0.142,0.661c0,1.938-0.803,3.595-0.378,5.578c0.047,0.239,0.425,0.948,0.236,0.854
		c-0.189-0.048-0.661-0.52-0.947-0.331c-0.283,0.188-0.331,0.708-0.472,0.566c-0.711-0.378-1.231-0.896-1.562-1.608
		c-0.094-0.282-0.094-0.803-0.142-0.755c-0.475,0.52-1.419,0.613-2.083,0.708c0.142-0.235,0.239-0.52,0.239-0.85
		c-0.522-0.236-1.325,0.661-1.325,0.566c0.047-0.189,0.047-0.331,0.094-0.473c0.095-0.33,0.236-0.661,0.378-0.947
		c0.142-0.283,0.331-0.52,0.567-0.803c0.189-0.236,0.475-0.424,0.711-0.613C27.656,40.23,27.939,40.089,28.27,39.995z"/>
	<path fill="#C3002F" d="M16.964,8.125c0.047,0,0.094-0.048,0.094-0.095c-0.522-0.661-1.089-0.613-1.372,0
		C15.544,8.458,16.536,8.316,16.964,8.125z M17.956,7.322c0.38,0,0.664-0.189,0.853-0.473c0,0.236,0.283,0.52,0.189,0.709
		c-0.142,0.235-0.472,0.425-0.566,0.711c-0.142,0.52,0.283,0.991,0,1.511c-0.9,1.514-2.792,0.994-4.164,1.325
		c0.047-0.047,0.047-0.142,0.047-0.236c-0.047-0.095-0.094-0.142-0.142-0.236c0.566,0.095,1.372-0.047,1.514-0.475
		c0.094-0.236,0.189-0.472,0.189-0.708s-0.095-0.473-0.189-0.709C15.261,8.03,14.361,8.363,13.697,8.6c0-0.094,0-0.188,0-0.236
		c0.05-0.094,0.097-0.191,0.145-0.286c0.047-0.047,0.094-0.142,0.189-0.188c0.094-0.047,0.189-0.047,0.283-0.095
		c0.661-0.188,1.325-0.425,1.986-0.661c0.569-0.236,1.089,0.284,1.656,0.236V7.322z"/>
	<path fill="#C3002F" d="M42.702,7.842C42.749,7.842,42.654,7.842,42.702,7.842c-0.566-0.283-1.278-0.661-1.514,0.094
		C40.999,8.458,42.229,8.077,42.702,7.842z M43.602,10.158c-0.188,0.142-0.519,0.142-0.711,0.286
		c-0.189,0.142-0.283,0.188-0.378,0.283c-0.142,0.048-0.236,0.095-0.33,0.142c-0.095,0.048-0.236,0.048-0.331,0.048
		c-0.095,0-0.189,0-0.284,0h-0.57c-0.141,0.047-0.33,0.047-0.519,0c-0.142,0-0.283-0.048-0.425-0.095
		c-0.097-0.047-0.192-0.047-0.286-0.047c0-0.095,0.047-0.189,0.094-0.284c0.095-0.097,0.142,0,0.287,0h0.236h0.095
		c0.094,0,0.142,0,0.189-0.047c0.094,0,0.142-0.05,0.236-0.098l0.047-0.094c0.047-0.048,0.142-0.048,0.189-0.095
		c0.142-0.189,0.236-0.378,0.236-0.566c0.047-0.189,0.047-0.331,0-0.52c0,0,0-0.048,0-0.095c0-0.142-0.047-0.236-0.142-0.378
		c-0.377-0.664-1.278,0-1.939-0.047c0-0.142,0-0.331,0.095-0.476c0.425-0.566,1.136-0.283,1.514-0.566
		c1.184-0.896,1.514-0.236,2.792,0.095c0.425,0.047,0.9-0.047,1.278-0.283c0.094-0.048,0.094,0.52,0.047,0.661
		c-0.142,0.38-0.566,0.38-0.711,0.758c-0.236,0.52-0.236,1.228-0.803,1.512L43.602,10.158z"/>
	<path fill="#C3002F" d="M28.317,37.062c0.239,0.094,0.853-0.284,1.089-0.426c0.095,0,0.095-0.047,0.142-0.095
		c-0.142-0.047-0.33-0.094-0.519-0.094c-0.142,0-0.236-0.095-0.378-0.142c0,0-0.047,0-0.094,0c-0.047,0-0.047,0.047-0.095,0.095
		c-0.047,0-0.192,0-0.239,0.094c-0.047,0.047-0.094,0.095-0.141,0.188c0,0.095,0,0.189,0.047,0.284
		C28.223,37.015,28.27,37.062,28.317,37.062z M30.023,36.07c0.094,0.046,0.236,0.094,0.377,0.094c0.142,0.047,0.284,0,0.425,0
		c0.142-0.048,0.283-0.094,0.377-0.188c0.145-0.048,0.239-0.142,0.333-0.236c0.189,0.755-0.522,0.85-0.664,1.228
		c-0.188,0.569-0.142,1.136-0.661,1.372c-1.183,0.708-2.414,1.181-3.739,1.42c0-0.145-0.095-0.429,0.094-0.429
		s0.381-0.095,0.522-0.188c0.188-0.095,0.283-0.236,0.377-0.425c0.142-0.378,0-1.228-0.377-1.42
		c-0.333-0.142-0.664,0.142-1.042,0.286c-0.142-0.381,0.472-1.042,1.419-0.947c0,0,0.472-0.565,0.425-0.52
		c0.617-0.425,1.278-0.235,2.131,0V36.07z"/>
	<path fill="#C3002F" d="M47.102,30.775c0-0.191,0.428-0.712,0.428-1.137c0.047-1.419,0.897-2.033,0.897-3.5
		c0-0.377-1.561-0.755-1.655-1.558c0-0.425-0.142-0.995,0.236-0.995c0.522,0.047,0.995-0.095,1.419-0.425
		c1.656-1.464,0.236-3.45,0.047-5.2c-0.047-0.378,0.711-1.23,0.664-1.514c-0.142-1.464-0.381-2.836,0.142-4.303
		c-0.425,0.377-0.569,0.994-0.9,1.277c-0.189,0.189-0.236-0.188-0.236-0.236c0.236-1.277,0.711-2.505,1.325-3.642
		c0.708-1.467,0.331-2.6-0.947-3.072c-1.231-0.378-2.364,0.709-2.506,1.892c-0.047,1.087,0.095,2.128,0.425,3.167
		c0.094,0.236,0,0.52,0.094,0.756c0.189-0.897,0.283-1.795,0.236-2.694c0-0.142,0.047-0.236,0.094-0.378
		c0.095-0.095,0.189-0.189,0.283-0.236c0.142-0.047,0.287-0.094,0.428-0.094c0.189,0,0.331,0.047,0.425,0.141
		c0.142,0.095,0.236,0.189,0.283,0.331C48.38,9.497,48.38,9.639,48.38,9.78c-0.189,1.278-0.472,2.553-0.803,3.831
		c-0.381,1.514,0.189,3.071,0.377,4.586c-0.614-0.33-1.278-0.33-1.514,0.566c-0.142,0.52,0.331,1.042,0.472,1.467
		c0-0.566,0.569-1.372,1.136-1.042c0.708,0.428,0.708,2.604,0.519,2.887c-0.047,0.142-0.142,0.283-0.236,0.425
		s-0.236,0.236-0.378,0.283c-0.142,0.095-0.331,0.142-0.472,0.189c-0.192,0-0.333,0-0.522-0.048
		c-0.425-0.142-0.236-0.756-0.52-0.991c-0.617-0.711-1.136-1.467-1.467-2.317c-0.378-0.853-0.567-1.702-0.617-2.649
		c0-0.284,0.145-0.992,0.097-1.039c-1.753-0.661-2.556,0-3.314,1.039c-0.095-0.331-0.803-0.756-0.85-0.661
		c-0.047,0.188-0.142,0.377-0.142,0.566c-0.047,0.188-0.047,0.381-0.047,0.569c0.047,0.189,0.095,0.378,0.189,0.566
		c0.047,0.142,0.142,0.331,0.283,0.473c1.325,1.184,2.698,1.938,3.453,3.595c-0.803,0.142-1.608,0.378-1.939,1.181
		c-0.283,0.853-0.189,2.128,0.708,2.506c0.758,0.283,2.083,0,2.366,0c0.806,0.094,1.703,0.758,1.609,1.561
		c0,0.048-0.378,1.798-1.136,1.372c-0.425-0.236-0.189-1.183-0.85-1.372c-0.853-0.236-1.042,0.991-0.947,0.85
		c0.283-0.236,0.472,0.189,0.995,0.476c-1.797-0.381-1.231,1.275-1.184,1.086c0.094-0.189,0.425,0,1.089,0l-0.142,0.142
		c-0.094,0.142-0.189,0.283-0.239,0.425c-0.047,0.095-0.047,0.189,0,0.236c0,0.095,0.05,0.191,0.097,0.286c0,0,0,0,0,0.047h0.047
		c0.047,0,0-0.094,0.094-0.094c0.047-0.048,0.095-0.048,0.095,0h0.188h0.142c0.095,0,0.189,0,0.284,0
		c0.094-0.048,0.142-0.048,0.236-0.098c-0.095,0.05,0.142-0.142,0.142-0.142c0.094-0.236,0.191-0.142,0.191-0.188
		c0.189-0.378,0.378-0.378,0.803-0.331c0.047,0,0.095,0.095,0.142,0.095c0,0.047,0.095,0.283,0.095,0.188
		c0,0.189,0.142,0.284,0.142,0.428L47.102,30.775z"/>
	<path fill="#C3002F" d="M34.09,14.272c-0.142-0.095-0.142-0.236-0.236-0.331l-0.047-0.047c-0.047-0.048-0.094-0.095-0.094-0.142
		c-0.047-0.142-0.047-0.284,0-0.378c0.047-0.142,0.094-0.236,0.189-0.331l0.047-0.047c0.047-0.047,0.047,0,0-0.047
		c-0.047-0.048,0,0,0,0c0.047-0.048,0.047-0.095,0.047-0.142c0-0.048-0.047-0.048-0.094-0.095c0.094,0,0.189,0,0.236,0h0.097
		c0.284,0.047,0.661,0.188,0.708,0.472l0.094,0.095c0.284,0.708,0.189,2.364,1.845,2.789c0.853,0.283,1.706,0.425,2.603,0.473
		c-0.236,0.853-0.236,1.938,0.472,2.552c-0.992-0.519-1.656-0.424-2.506-1.227c-0.475-0.426-1.089-0.712-1.75-0.759
		c-0.144,0,0.284-0.566-0.144-0.708c-0.236-0.095-0.945-0.095-1.039,0.094c-0.381,0.52-0.853,0.854-1.419,1.042
		c0.236-0.188-0.948-1.136,0.519-1.656c0.142-0.047,0.189-0.377,0-0.425c-0.283-0.142-0.519,0.048-0.803,0.189
		c-0.286,0.188-0.38-0.473-0.9-0.236c-0.094-1.467,1.231-1.608,2.033-0.711c0.047,0.094,0.286,0,0.142-0.095V14.272z"/>
	<path fill="#231F20" d="M52.072,7.794c-0.189,9.742-0.428,19.104-3.264,28.134L28.509,19.9L8.116,35.976
		C5.23,26.897,5.041,17.536,4.802,7.794c0-0.944,0-1.892-0.047-2.789h47.412C52.119,5.952,52.119,6.896,52.072,7.794z
		 M43.224,47.653c-3.314,5.105-8.423,9.314-14.762,12.291c-6.342-2.93-11.451-7.186-14.812-12.291
		c-0.566-0.851-1.086-1.703-1.561-2.554l16.42-12.955l16.37,12.909C44.357,45.903,43.791,46.803,43.224,47.653z M9.108,38.812
		l19.401-15.32l19.304,15.273c-0.472,1.23-1.042,2.505-1.656,3.735L28.509,28.506L10.764,42.5
		C10.15,41.27,9.583,40.042,9.108,38.812z M3.811,4.061v0.473c0,1.133,0.047,2.175,0.047,3.261
		c0.283,14.187,0.567,27.521,8.989,40.331c3.5,5.298,8.801,9.742,15.375,12.768l0.239,0.094l0.189-0.094
		c6.575-3.072,11.876-7.47,15.376-12.768c8.375-12.811,8.706-26.145,8.989-40.283c0-1.087,0-2.176,0.047-3.309V4.061H3.811z"/>
</g>
</svg>
